<svg width="35" height="30" viewBox="0 0 35 30" fill="none" xmlns="http://www.w3.org/2000/svg">
<path d="M9.375 0C4.20375 0 0 4.23591 0 9.33842C0 11.119 0.81 12.6604 1.5625 13.7748C2.0058 14.4348 2.51643 15.0473 3.08625 15.6026L16.6 29.1048L17.4987 30L18.3975 29.1048L31.9125 15.6026C31.9125 15.6026 35 12.8933 35 9.33842C35 4.23591 30.7962 0 25.625 0C21.3325 0 18.5688 2.57242 17.5 3.65817C16.4312 2.57242 13.6675 0 9.375 0ZM9.375 2.49025C13.11 2.49025 16.5625 6.10857 16.5625 6.10857L17.5 7.15946L18.4375 6.10857C18.4375 6.10857 21.89 2.49025 25.625 2.49025C29.4287 2.49025 32.5 5.59807 32.5 9.33842C32.5 11.2597 30.1562 13.852 30.1562 13.852L17.5 26.4589L4.84375 13.852C4.84375 13.852 4.23875 13.273 3.6325 12.3728C3.0275 11.4751 2.5 10.3021 2.5 9.33842C2.5 5.59807 5.57125 2.49025 9.375 2.49025Z" fill="#9F9F9F"/>
</svg>
