<svg width="35" height="31" viewBox="0 0 35 31" fill="none" xmlns="http://www.w3.org/2000/svg">
<path d="M9.18369 0.00012207C4.11797 0.00012207 0 4.28432 0 9.445C0 11.2458 0.793471 12.8049 1.53061 13.9319C1.96487 14.5994 2.46508 15.219 3.02327 15.7806L16.2612 29.4367L17.1417 30.3421L18.0221 29.4367L31.2613 15.7806C31.2613 15.7806 34.2858 13.0403 34.2858 9.445C34.2858 4.28432 30.1678 0.00012207 25.1021 0.00012207C20.8972 0.00012207 18.1898 2.60187 17.1429 3.7C16.0959 2.60187 13.3886 0.00012207 9.18369 0.00012207ZM9.18369 2.51876C12.8425 2.51876 16.2245 6.17833 16.2245 6.17833L17.1429 7.24119L18.0613 6.17833C18.0613 6.17833 21.4433 2.51876 25.1021 2.51876C28.8282 2.51876 31.8368 5.66201 31.8368 9.445C31.8368 11.3881 29.5409 14.01 29.5409 14.01L17.1429 26.7606L4.74491 14.01C4.74491 14.01 4.15225 13.4244 3.55837 12.514C2.96572 11.606 2.44898 10.4197 2.44898 9.445C2.44898 5.66201 5.45756 2.51876 9.18369 2.51876Z" fill="#E34747"/>
<path d="M9.18369 2.51876C12.8425 2.51876 16.2245 6.17833 16.2245 6.17833L17.1429 7.24119L18.0613 6.17833C18.0613 6.17833 21.4433 2.51876 25.1021 2.51876C28.8282 2.51876 31.8368 5.66201 31.8368 9.445C31.8368 11.3881 29.5409 14.01 29.5409 14.01L17.1429 26.7606L4.74491 14.01C4.74491 14.01 4.15225 13.4244 3.55837 12.514C2.96572 11.606 2.44898 10.4197 2.44898 9.445C2.44898 5.66201 5.45756 2.51876 9.18369 2.51876Z" fill="#E34747"/>
</svg>
