<svg width="101" height="78" viewBox="0 0 101 78" fill="none" xmlns="http://www.w3.org/2000/svg">
<rect width="101" height="78" fill="#F4F3F8"/>
<path d="M61.0852 38.3338C55.1195 35.1401 49.4073 32.204 43.5684 29.1384V47.4772C49.7127 44.1311 56.189 41.0668 61.1105 38.3338H61.0852Z" fill="white"/>
<path d="M44.691 61.834C32.2997 61.6055 28.0675 61.3999 25.4661 60.863C23.7061 60.5062 22.1766 59.7142 21.0552 58.5654C20.1885 57.6959 19.4992 56.3693 18.9644 54.5288C18.5057 52.9954 18.3271 51.7196 18.0723 48.6033C17.6824 41.5701 17.5895 35.82 18.0723 29.3951C18.4707 25.847 18.6638 21.6351 21.3099 19.1778C22.5593 18.0278 24.0127 17.2877 25.6448 16.9818C28.1942 16.4969 39.0561 16.1135 50.3006 16.1135C61.5198 16.1135 72.4058 16.4969 74.9577 16.9818C76.9966 17.3651 78.9087 18.5139 80.0313 19.9953C82.4456 23.7997 82.4879 28.5304 82.7329 32.2308C82.8343 33.994 82.8343 44.0056 82.7329 45.7687C82.3515 51.6168 82.0449 53.6859 81.1781 55.8312C80.6422 57.1856 80.1846 57.9002 79.3928 58.6923C78.1508 59.9112 76.5675 60.722 74.8539 61.0166C64.1309 61.8244 55.0254 61.9997 44.691 61.834ZM61.1118 38.3353C55.1461 35.1416 49.4339 32.18 43.595 29.1145V47.4545C49.7393 44.1084 56.2168 41.0429 61.1371 38.3099L61.1118 38.3353Z" fill="#19183C"/>
</svg>
