<svg width="17" height="17" viewBox="0 0 17 17" fill="none" xmlns="http://www.w3.org/2000/svg">
<path d="M6.6099 0C10.2533 0 13.2198 2.96641 13.2198 6.60964C13.2198 8.19265 12.6646 9.64347 11.7326 10.7823L17 16.0482L16.0488 17L10.7821 11.7328C9.60581 12.6971 8.13093 13.2226 6.6099 13.2193C2.96652 13.2193 0 10.2529 0 6.60964C0 2.96641 2.96652 0 6.6099 0ZM6.6099 1.32193C3.68171 1.32193 1.32198 3.68157 1.32198 6.60964C1.32198 9.53771 3.68171 11.8974 6.6099 11.8974C9.53808 11.8974 11.8978 9.53771 11.8978 6.60964C11.8978 3.68157 9.53808 1.32193 6.6099 1.32193Z" fill="#0A0A0A"/>
</svg>
