<svg width="25" height="29" viewBox="0 0 25 29" fill="none" xmlns="http://www.w3.org/2000/svg">
<path d="M12.5 1C7.68125 1 3.75 5.00273 3.75 9.90909C3.75 12.9764 5.2875 15.7 7.6175 17.3075C3.15875 19.2547 0 23.7602 0 29H2.5C2.5 23.3618 6.9625 18.8182 12.5 18.8182C18.0375 18.8182 22.5 23.3618 22.5 29H25C25 23.7602 21.8412 19.256 17.3825 17.3062C18.5717 16.4888 19.546 15.3872 20.2202 14.0976C20.8945 12.8081 21.248 11.37 21.25 9.90909C21.25 5.00273 17.3188 1 12.5 1ZM12.5 3.54545C15.9663 3.54545 18.75 6.37982 18.75 9.90909C18.75 13.4384 15.9663 16.2727 12.5 16.2727C9.03375 16.2727 6.25 13.4384 6.25 9.90909C6.25 6.37982 9.03375 3.54545 12.5 3.54545Z" fill="white"/>
</svg>
