<svg width="116" height="28" viewBox="0 0 116 28" fill="none" xmlns="http://www.w3.org/2000/svg">
<path fill-rule="evenodd" clip-rule="evenodd" d="M0 0H28V12.8333H0V0ZM2.33333 2.33333H25.6667V10.5H2.33333V2.33333Z" fill="white"/>
<path fill-rule="evenodd" clip-rule="evenodd" d="M0 15.1667H28V28H0V15.1667ZM2.33333 17.5H25.6667V25.6667H2.33333V17.5Z" fill="white"/>
<path fill-rule="evenodd" clip-rule="evenodd" d="M88 0H100.923V12.9231H88V0ZM90.1538 2.15385H98.7692V10.7692H90.1538V2.15385Z" fill="#9F9F9F"/>
<path fill-rule="evenodd" clip-rule="evenodd" d="M103.077 0H116V12.9231H103.077V0ZM105.231 2.15385H113.846V10.7692H105.231V2.15385Z" fill="#9F9F9F"/>
<path fill-rule="evenodd" clip-rule="evenodd" d="M88 15.0769V28H100.923V15.0769H88ZM98.7692 17.2308H90.1538V25.8462H98.7692V17.2308Z" fill="#9F9F9F"/>
<path fill-rule="evenodd" clip-rule="evenodd" d="M103.077 15.0769H116V28H103.077V15.0769ZM105.231 17.2308H113.846V25.8462H105.231V17.2308Z" fill="#9F9F9F"/>
</svg>
