<svg width="32" height="29" viewBox="0 0 32 29" fill="none" xmlns="http://www.w3.org/2000/svg">
<path d="M1.19034 1C0.874641 1 0.571874 1.1317 0.348642 1.36612C0.12541 1.60054 0 1.91848 0 2.25C0 2.58152 0.12541 2.89946 0.348642 3.13388C0.571874 3.3683 0.874641 3.5 1.19034 3.5H1.77598C2.03446 3.50047 2.28576 3.58928 2.49192 3.753C2.69808 3.91672 2.84789 4.14646 2.91871 4.4075L6.69446 18.2825C6.90801 19.0655 7.35853 19.7542 7.97789 20.2445C8.59725 20.7348 9.35177 21 10.1274 21H21.0047C21.7185 21.0001 22.416 20.7756 23.0072 20.3554C23.5983 19.9351 24.0559 19.3385 24.321 18.6425L27.8301 9.4275C27.9744 9.04832 28.028 8.6378 27.9863 8.23183C27.9446 7.82586 27.8088 7.43679 27.5908 7.09865C27.3729 6.7605 27.0794 6.48357 26.7359 6.29205C26.3925 6.10053 26.0097 6.00026 25.6208 6H5.82789L5.20654 3.72C4.99353 2.93693 4.54356 2.24797 3.92464 1.75724C3.30572 1.26652 2.5515 1.00071 1.77598 1H1.19034ZM8.98467 17.5925L6.50877 8.5H25.6184L22.1093 17.715C22.0209 17.9467 21.8684 18.1453 21.6716 18.2852C21.4747 18.4251 21.2424 18.4999 21.0047 18.5H10.1274C9.86892 18.4995 9.61762 18.4107 9.41146 18.247C9.2053 18.0833 9.05549 17.8535 8.98467 17.5925Z" fill="white"/>
<path d="M11.8067 26.7827C11.8067 28.0073 10.774 29 9.5 29C8.22605 29 7.1933 28.0073 7.1933 26.7827C7.1933 25.5582 8.22605 24.5655 9.5 24.5655C10.774 24.5655 11.8067 25.5582 11.8067 26.7827Z" fill="white"/>
<path d="M21.6933 29C22.9673 29 24 28.0073 24 26.7827C24 25.5582 22.9673 24.5655 21.6933 24.5655C20.4193 24.5655 19.3866 25.5582 19.3866 26.7827C19.3866 28.0073 20.4193 29 21.6933 29Z" fill="white"/>
</svg>
