<svg width="35" height="29" viewBox="0 0 35 29" fill="none" xmlns="http://www.w3.org/2000/svg">
<path d="M8.57143 1C3.84343 1 0 4.95352 0 9.71586C0 11.3777 0.740571 12.8164 1.42857 13.8565C1.83388 14.4725 2.30074 15.0442 2.82171 15.5625L15.1771 28.1644L15.9989 29L16.8206 28.1644L29.1771 15.5625C29.1771 15.5625 32 13.0337 32 9.71586C32 4.95352 28.1566 1 23.4286 1C19.504 1 16.9771 3.40093 16 4.41429C15.0229 3.40093 12.496 1 8.57143 1ZM8.57143 3.32423C11.9863 3.32423 15.1429 6.70134 15.1429 6.70134L16 7.68216L16.8571 6.70134C16.8571 6.70134 20.0137 3.32423 23.4286 3.32423C26.9063 3.32423 29.7143 6.22487 29.7143 9.71586C29.7143 11.509 27.5714 13.9285 27.5714 13.9285L16 25.6949L4.42857 13.9285C4.42857 13.9285 3.87543 13.3881 3.32114 12.5479C2.768 11.7101 2.28571 10.6153 2.28571 9.71586C2.28571 6.22487 5.09371 3.32423 8.57143 3.32423Z" fill="white"/>
</svg>
