<svg width="35" height="34" viewBox="0 0 35 34" fill="none" xmlns="http://www.w3.org/2000/svg">
<path d="M3.35093 0C1.64831 0 0.238281 1.40018 0.238281 3.09091V30.9091C0.238281 32.5998 1.64831 34 3.35093 34H31.3648C33.0674 34 34.4774 32.5998 34.4774 30.9091V3.09091C34.4774 1.40018 33.0674 0 31.3648 0H3.35093ZM3.35093 3.09091H31.3648V30.9091H23.2906V20.4773H27.3277L27.9113 15.8409H23.2921V12.8458C23.2921 11.4951 23.6252 10.5771 25.5768 10.5771H28.1058V6.375C27.6747 6.32091 26.1791 6.22973 24.4594 6.22973C20.872 6.22973 18.4286 8.37327 18.4286 12.3636V15.8409H14.3432V20.4773H18.427V30.9091H3.35093V3.09091Z" fill="white"/>
</svg>
