<svg width="35" height="34" viewBox="0 0 35 34" fill="none" xmlns="http://www.w3.org/2000/svg">
<path d="M10.5444 0C5.01792 0 0.476562 4.50345 0.476562 9.99755V24.0025C0.476562 29.4904 5.01169 34 10.5444 34H24.6478C30.1743 34 34.7157 29.4965 34.7157 24.0025V9.99909C34.7157 4.50964 30.1806 0 24.6478 0H10.5444ZM10.5444 3.09091H24.6478C25.5616 3.08969 26.4665 3.2675 27.3109 3.61416C28.1553 3.96082 28.9226 4.46951 29.5687 5.11109C30.2147 5.75268 30.727 6.51454 31.0761 7.35305C31.4252 8.19155 31.6043 9.09021 31.603 9.99755V24.0025C31.6043 24.9098 31.4252 25.8084 31.0761 26.647C30.727 27.4855 30.2147 28.2473 29.5687 28.8889C28.9226 29.5305 28.1553 30.0392 27.3109 30.3858C26.4665 30.7325 25.5616 30.9103 24.6478 30.9091H10.546C9.63213 30.9105 8.72698 30.7329 7.8824 30.3863C7.03782 30.0397 6.27041 29.5311 5.62415 28.8895C4.97789 28.2479 4.46548 27.4859 4.11629 26.6473C3.7671 25.8087 3.58798 24.9099 3.58921 24.0025V9.99909C3.58778 9.09163 3.76669 8.1928 4.11569 7.35412C4.4647 6.51544 4.97694 5.75339 5.62305 5.11164C6.26917 4.46989 7.03646 3.96106 7.88096 3.61431C8.72547 3.26755 9.63058 3.08969 10.5444 3.09091ZM26.7878 6.47236C26.6024 6.47154 26.4187 6.5072 26.2472 6.57728C26.0758 6.64736 25.92 6.75046 25.7889 6.88064C25.6578 7.01083 25.554 7.1655 25.4834 7.33575C25.4128 7.506 25.3769 7.68844 25.3777 7.87255C25.3777 8.65145 26.0034 9.27273 26.7878 9.27273C26.9733 9.27375 27.1572 9.23824 27.3288 9.16826C27.5005 9.09827 27.6564 8.9952 27.7877 8.865C27.9189 8.7348 28.0229 8.58005 28.0936 8.4097C28.1642 8.23935 28.2002 8.05678 28.1994 7.87255C28.2002 7.68831 28.1642 7.50574 28.0936 7.33539C28.0229 7.16504 27.9189 7.01029 27.7877 6.88009C27.6564 6.74989 27.5005 6.64682 27.3288 6.57683C27.1572 6.50685 26.9733 6.47134 26.7878 6.47236ZM17.5961 7.72727C12.4603 7.72727 8.25818 11.9 8.25818 17C8.25818 22.1 12.4603 26.2727 17.5961 26.2727C22.732 26.2727 26.9341 22.1 26.9341 17C26.9341 11.9 22.732 7.72727 17.5961 7.72727ZM17.5961 10.8182C21.0558 10.8182 23.8214 13.5645 23.8214 17C23.8214 20.4355 21.0558 23.1818 17.5961 23.1818C14.1364 23.1818 11.3708 20.4355 11.3708 17C11.3708 13.5645 14.1364 10.8182 17.5961 10.8182Z" fill="#9F9F9F"/>
</svg>
