<?xml version="1.0" encoding="utf-8"?>
<!-- Generator: Adobe Illustrator 23.0.1, SVG Export Plug-In . SVG Version: 6.00 Build 0)  -->
<svg version="1.1" xmlns="http://www.w3.org/2000/svg" xmlns:xlink="http://www.w3.org/1999/xlink" x="0px" y="0px"
	 viewBox="0 0 62.89 42.72" style="enable-background:new 0 0 62.89 42.72;" xml:space="preserve">
<style type="text/css">
	.st0{display:none;fill:#0E0548;}
	.st1{display:none;}
	.st2{display:inline;fill:none;}
	.st3{display:inline;}
	.st4{fill:#0E0548;}
	.st5{fill:#7D7DA0;}
	.st6{fill:#DDDDDD;}
	.st7{fill:#0200AB;}
	.st8{fill:#5D96D9;}
	.st9{fill:#2A325B;}
	.st10{fill:#959CB3;}
	.st11{fill:#696993;}
	.st12{display:inline;fill:#696993;}
	.st13{display:none;fill:#696993;}
	.st14{fill:none;stroke:#696993;stroke-miterlimit:10;}
	.st15{display:none;fill:none;stroke:#696993;stroke-width:0.25;stroke-miterlimit:10;}
	.st16{display:inline;fill:none;stroke:#696993;stroke-miterlimit:10;}
	.st17{display:none;fill:none;stroke:#696993;stroke-miterlimit:10;}
	.st18{fill:none;stroke:#FFFFFF;stroke-linejoin:bevel;stroke-miterlimit:10;}
	.st19{fill:#696993;stroke:#FFFFFF;stroke-miterlimit:10;}
	.st20{fill:#FFFFFF;}
	.st21{display:none;fill:#696993;stroke:#FFFFFF;stroke-miterlimit:10;}
	.st22{display:inline;fill:none;stroke:#FFFFFF;stroke-linejoin:bevel;stroke-miterlimit:10;}
	.st23{display:inline;fill:#696993;stroke:#FFFFFF;stroke-miterlimit:10;}
	.st24{display:inline;fill:#FFFFFF;}
	.st25{display:none;fill:none;stroke:#FFFFFF;stroke-linejoin:bevel;stroke-miterlimit:10;}
	.st26{fill:none;stroke:#FFFFFF;stroke-miterlimit:10;}
	.st27{display:none;fill:none;stroke:#FFFFFF;stroke-miterlimit:10;}
	.st28{fill:#181A37;}
	.st29{fill:#E5E5E5;}
	.st30{fill:#A0A0A0;}
	.st31{fill:#6D6D6D;}
	.st32{fill:#F7F7F6;}
	.st33{fill:url(#SVGID_1_);}
	.st34{fill:url(#SVGID_2_);}
	.st35{fill:url(#SVGID_3_);}
	.st36{fill:url(#SVGID_4_);}
	.st37{fill:url(#SVGID_5_);}
	.st38{fill:#676767;}
	.st39{fill:#D3D3D3;}
	.st40{fill:url(#SVGID_6_);}
	.st41{fill:url(#SVGID_7_);}
	.st42{fill:url(#SVGID_8_);}
	.st43{fill:url(#SVGID_9_);}
	.st44{fill:url(#SVGID_10_);}
	.st45{fill:url(#SVGID_11_);}
	.st46{fill:#A2A2A0;}
	.st47{fill:#EAEAE9;}
	.st48{fill:#D1D1D1;}
	.st49{fill:url(#SVGID_12_);}
	.st50{fill:url(#SVGID_13_);}
	.st51{fill:url(#SVGID_14_);}
	.st52{fill:url(#SVGID_15_);}
	.st53{fill:url(#SVGID_16_);}
	.st54{fill:#696969;}
	.st55{fill:#ADADAD;}
	.st56{fill:url(#SVGID_17_);}
	.st57{fill:url(#SVGID_18_);}
	.st58{fill:url(#SVGID_19_);}
	.st59{fill:url(#SVGID_20_);}
	.st60{fill:url(#SVGID_21_);}
	.st61{fill:url(#SVGID_22_);}
	.st62{fill:#C3C3C3;}
	.st63{fill:#C6C6C6;}
	.st64{fill:url(#SVGID_23_);}
	.st65{fill:url(#SVGID_24_);}
	.st66{fill:url(#SVGID_25_);}
	.st67{fill:url(#SVGID_26_);}
	.st68{fill:url(#SVGID_27_);}
	.st69{fill:url(#SVGID_28_);}
	.st70{fill:url(#SVGID_29_);}
	.st71{fill:url(#SVGID_30_);}
	.st72{fill:url(#SVGID_31_);}
	.st73{fill:url(#SVGID_32_);}
	.st74{fill:url(#SVGID_33_);}
	.st75{fill:url(#SVGID_34_);}
	.st76{fill:url(#SVGID_35_);}
	.st77{fill:url(#SVGID_36_);}
	.st78{fill:url(#SVGID_37_);}
	.st79{fill:url(#SVGID_38_);}
	.st80{fill:url(#SVGID_39_);}
	.st81{fill:url(#SVGID_40_);}
	.st82{fill:url(#SVGID_41_);}
	.st83{fill:url(#SVGID_42_);}
	.st84{fill:url(#SVGID_43_);}
	.st85{fill:url(#SVGID_44_);}
	.st86{fill:#00BF36;}
	.st87{fill:#721AD8;}
	.st88{fill:#FF6700;}
	.st89{fill:#008CFF;}
	.st90{fill:#308967;}
	.st91{fill:#A03333;}
	.st92{display:inline;fill:none;stroke:#7F1A00;stroke-width:5;stroke-miterlimit:10;}
	.st93{display:inline;fill:#181A37;}
	.st94{fill:#3F4156;}
	.st95{fill:#1AA3FF;}
</style>
<g id="Слой_1">
</g>
<g id="Слой_2" class="st1">
</g>
<g id="Основа_лого_1_">
</g>
<g id="Logo">
</g>
<g id="Слой_6">
</g>
<g id="Слой_7">
</g>
<g id="Слой_8">
</g>
<g id="Слой_9">
</g>
<g id="Слой_10">
</g>
<g id="Слой_11">
</g>
<g id="Слой_12">
</g>
<g id="Слой_14">
</g>
<g id="Слой_13">
</g>
<g id="Слой_17">
	<g>
		<g>
			<path class="st31" d="M27.08,5.89l-3.14-5.45c-0.73,0.79-1.45,1.58-2.18,2.37L27.08,5.89z"/>
			<path class="st31" d="M26.52,6.84l-5.53-3.19c-0.98,1.06-1.95,2.13-2.93,3.19H26.52z"/>
			<path class="st31" d="M20.19,10.1h8.23l1.87-1.08l-1.87-1.08h-10.4C18.75,8.66,19.47,9.38,20.19,10.1z"/>
			<polygon class="st31" points="28.98,6.99 30.85,8.07 30.85,5.91 27.68,0.42 25.19,0.42 			"/>
			<polygon class="st31" points="31.95,3.71 33.85,0.42 31.95,0.42 			"/>
			<path class="st31" d="M41.04,2.82c-0.72-0.79-1.44-1.58-2.17-2.36l-3.13,5.42L41.04,2.82z"/>
			<path class="st31" d="M26.52,11.2h-5.23c0.64,0.64,1.28,1.28,1.91,1.91L26.52,11.2z"/>
			<polygon class="st31" points="31.95,5.91 31.95,8.07 33.84,6.97 37.62,0.42 35.12,0.42 			"/>
			<polygon class="st31" points="30.85,3.71 30.85,0.42 28.95,0.42 			"/>
			<path class="st31" d="M35.72,12.15l1.77,3.06c0.43-0.43,0.86-0.86,1.29-1.29L35.72,12.15z"/>
			<path class="st31" d="M36.27,11.2l3.31,1.91c0.64-0.64,1.28-1.28,1.91-1.91H36.27z"/>
			<path class="st31" d="M34.37,7.94L32.5,9.02l1.87,1.08h8.23c0.72-0.72,1.44-1.44,2.16-2.16H34.37z"/>
			<path class="st31" d="M36.27,6.84h8.46c-0.98-1.06-1.95-2.13-2.93-3.19L36.27,6.84z"/>
			<path class="st31" d="M31.95,14.33v6.42c0.78-0.78,1.57-1.57,2.35-2.35L31.95,14.33z"/>
			<path class="st31" d="M33.82,11.05l-1.87-1.08v2.16l3.16,5.47c0.53-0.53,1.05-1.05,1.58-1.58L33.82,11.05z"/>
			<path class="st31" d="M30.85,14.32l-2.35,4.08c0.78,0.78,1.57,1.57,2.35,2.35V14.32z"/>
			<path class="st31" d="M30.85,12.12V9.97l-1.87,1.08l-2.87,4.97c0.52,0.52,1.05,1.05,1.57,1.57L30.85,12.12z"/>
			<path class="st31" d="M27.08,12.15l-3.06,1.77c0.43,0.43,0.86,0.86,1.29,1.29L27.08,12.15z"/>
		</g>
		<g>
			<g>
				<path class="st31" d="M1.33,25.17L1.3,24.66c2.38,0,4.39-0.1,6.01-0.29c0.6-0.08,1.23-0.12,1.88-0.12c1.33,0,2.59,0.2,3.8,0.59
					c1.21,0.4,2.29,0.97,3.23,1.71c0.94,0.75,1.68,1.66,2.22,2.73c0.54,1.07,0.81,2.27,0.81,3.61c0,1.62-0.42,3.09-1.25,4.43
					s-2.02,2.39-3.56,3.15c-1.54,0.77-3.3,1.15-5.27,1.15c-0.12,0-0.47-0.01-1.05-0.03c-0.59-0.02-0.93-0.03-1.03-0.03
					c-0.35,0-0.66,0-0.93,0.01c-0.27,0-0.67,0.01-1.19,0.02c-0.52,0.01-1.02,0.02-1.49,0.03c-0.48,0.01-0.8,0.02-0.98,0.02
					l-1.31-0.03v-0.51c0.95,0,1.52-0.21,1.72-0.63c0.22-0.49,0.33-2.7,0.33-6.63c0-2.61-0.03-4.56-0.09-5.84
					c-0.06-1.28-0.19-2.08-0.37-2.39C2.55,25.3,2.06,25.14,1.33,25.17z M16.93,32.92c0-1.69-0.4-3.14-1.2-4.35
					c-0.8-1.21-1.82-2.13-3.07-2.75c-1.25-0.62-2.52-0.93-3.83-0.93c-1.28,0-2.44,0.23-3.47,0.69c-0.09,0.5-0.16,1.98-0.2,4.45
					c-0.04,2.47-0.07,4.6-0.07,6.39c0,0.07,0.01,0.4,0.02,1c0.01,0.6,0.03,1.2,0.04,1.81c0.01,0.61,0.02,0.96,0.02,1.05
					c0.9,0.28,1.59,0.48,2.07,0.59c0.48,0.11,1.08,0.17,1.81,0.17c1.84,0,3.35-0.4,4.53-1.19c1.18-0.8,2.03-1.81,2.55-3.05
					C16.67,35.55,16.93,34.26,16.93,32.92z"/>
				<path class="st31" d="M21.17,41.73l0.05-0.41c0.76-0.07,1.18-0.2,1.28-0.4c0.04-0.08,0.08-0.4,0.12-0.95
					c0.04-0.56,0.06-1.22,0.09-1.99c0.02-0.77,0.03-1.2,0.03-1.3c0-1.26-0.02-2.07-0.06-2.43c-0.04-0.36-0.12-0.6-0.23-0.73
					c-0.04-0.04-0.26-0.09-0.67-0.13c-0.41-0.04-0.61-0.1-0.61-0.17c0-0.14,0.08-0.23,0.24-0.27c1.06-0.33,2.09-0.91,3.11-1.75
					c0.06,0,0.15,0.02,0.25,0.05c-0.09,0.36-0.16,0.9-0.23,1.6s-0.11,1.44-0.15,2.21c-0.04,0.77-0.06,1.46-0.06,2.05
					c0,0.44,0.01,1.08,0.05,1.91c0.03,0.83,0.09,1.39,0.17,1.69c0.07,0.16,0.16,0.26,0.27,0.31c0.11,0.04,0.32,0.08,0.64,0.11
					c0.31,0.01,0.62,0.04,0.93,0.08l0.16,0.39L21.17,41.73z M23.18,25.78c0-0.3,0.1-0.55,0.31-0.75c0.21-0.2,0.45-0.29,0.73-0.29
					c0.29,0,0.52,0.1,0.72,0.31c0.2,0.2,0.29,0.45,0.29,0.73s-0.1,0.53-0.29,0.73c-0.19,0.2-0.43,0.31-0.73,0.31
					c-0.28,0-0.53-0.1-0.73-0.31C23.29,26.31,23.18,26.07,23.18,25.78z"/>
				<path class="st31" d="M31.59,42.3h-0.4c-0.24-1.01-0.61-2.22-1.12-3.63c-0.5-1.4-1.02-2.72-1.53-3.94
					c-0.52-1.22-0.83-1.88-0.94-1.97s-0.26-0.18-0.46-0.29s-0.37-0.19-0.5-0.26V31.9c0.29,0.02,0.76,0.03,1.41,0.03
					c0.98,0,2.12-0.04,3.41-0.11l-0.05,0.45c-0.63,0.07-1.03,0.14-1.19,0.21c-0.16,0.07-0.25,0.18-0.25,0.33
					c0,0.42,0.27,1.43,0.8,3.05s0.96,2.77,1.27,3.46c0.59-0.95,1.15-2.06,1.66-3.34c0.51-1.28,0.77-2.18,0.77-2.7
					c0-0.41-0.13-0.68-0.39-0.8c-0.26-0.12-0.6-0.2-1.04-0.21l0.05-0.43l0.93-0.03c0.48,0.05,0.9,0.08,1.25,0.08
					c0.56,0,1.07-0.05,1.53-0.16v0.4c-0.41,0.17-0.76,0.47-1.05,0.91c-0.29,0.44-0.5,0.83-0.62,1.17c-0.03,0.04-0.1,0.22-0.23,0.51
					c-0.13,0.3-0.21,0.49-0.27,0.58l-2.4,5.29L31.59,42.3z"/>
				<path class="st31" d="M37.56,36.68c0-0.78,0.14-1.49,0.43-2.13s0.69-1.18,1.19-1.65c0.51-0.46,1.1-0.82,1.77-1.07
					c0.68-0.25,1.4-0.37,2.17-0.37c0.7,0,1.37,0.13,1.99,0.39c0.63,0.26,1.18,0.61,1.65,1.07c0.47,0.45,0.84,0.99,1.11,1.61
					c0.27,0.62,0.41,1.28,0.41,1.99c0,0.92-0.22,1.79-0.66,2.6c-0.44,0.81-1.06,1.46-1.87,1.95c-0.8,0.49-1.73,0.74-2.78,0.74
					c-0.79,0-1.61-0.17-2.45-0.52c-0.84-0.35-1.55-0.9-2.12-1.67C37.85,38.85,37.56,37.87,37.56,36.68z M39.31,35.94
					c0,0.83,0.16,1.65,0.49,2.47s0.79,1.49,1.38,2.01c0.59,0.52,1.24,0.79,1.95,0.79c0.62,0,1.19-0.17,1.69-0.51
					c0.51-0.34,0.91-0.83,1.21-1.46c0.3-0.63,0.45-1.35,0.45-2.15c0-0.81-0.17-1.6-0.53-2.37s-0.84-1.4-1.45-1.88
					c-0.62-0.48-1.3-0.73-2.05-0.73c-0.6,0-1.15,0.16-1.63,0.49c-0.48,0.33-0.86,0.79-1.13,1.37
					C39.44,34.57,39.31,35.22,39.31,35.94z"/>
				<path class="st31" d="M51.03,41.73l-0.55-0.03c0.02-1.24-0.23-2.72-0.73-4.45c0.21-0.06,0.36-0.1,0.43-0.11
					c0.21,0.67,0.38,1.15,0.5,1.45c0.12,0.3,0.28,0.56,0.47,0.79c0.19,0.23,0.46,0.43,0.79,0.61c0.58,0.3,1.24,0.57,2,0.81
					c0.76,0.24,1.57,0.36,2.44,0.36c0.76,0,1.51-0.19,2.27-0.56c0.76-0.37,1.14-1.2,1.14-2.47c0-0.64-0.11-1.19-0.33-1.65
					c-0.22-0.46-0.51-0.84-0.87-1.12c-0.36-0.28-0.78-0.54-1.25-0.76c-0.48-0.22-1.09-0.48-1.85-0.76
					c-1.05-0.38-1.91-0.77-2.59-1.17c-0.68-0.4-1.22-0.89-1.62-1.48s-0.6-1.3-0.6-2.15c0-1.34,0.49-2.46,1.48-3.35
					c0.99-0.89,2.4-1.34,4.23-1.34c0.93,0,1.85,0.1,2.76,0.29c0.36,0.07,0.59,0.11,0.68,0.11c0.27,0,0.53-0.09,0.8-0.27l0.11-0.05
					c0.07,0,0.16,0.02,0.27,0.05c-0.03,0.2-0.05,0.41-0.07,0.61s-0.04,0.42-0.07,0.66c-0.02,0.24-0.04,0.43-0.05,0.56
					s-0.02,0.22-0.03,0.27c0.12,1.08,0.17,1.66,0.16,1.76l-0.4,0.03c-0.07-0.91-0.37-1.62-0.89-2.14s-1.12-0.87-1.77-1.06
					c-0.66-0.19-1.29-0.28-1.89-0.28c-1.48,0-2.45,0.38-2.93,1.15s-0.71,1.5-0.71,2.18c0,0.72,0.18,1.32,0.53,1.79
					s0.8,0.85,1.33,1.12c0.53,0.27,1.27,0.59,2.23,0.96c1.08,0.43,1.96,0.82,2.61,1.18c0.66,0.36,1.25,0.88,1.76,1.56
					c0.52,0.68,0.77,1.52,0.77,2.53c0,0.85-0.22,1.62-0.67,2.31s-1.11,1.23-2,1.63c-0.89,0.4-1.98,0.6-3.27,0.6
					c-1.25,0-2.56-0.18-3.91-0.55c-0.24-0.05-0.39-0.08-0.44-0.08C51.06,41.26,50.98,41.42,51.03,41.73z"/>
			</g>
			<g class="st1">
				<g class="st3">
					<path class="st30" d="M17.35,27.65c0.32,0.41,0.6,0.84,0.84,1.32c0.54,1.07,0.81,2.27,0.81,3.61c0,1.62-0.42,3.09-1.25,4.43
						c-0.83,1.33-2.02,2.39-3.56,3.15c-1.54,0.77-3.3,1.15-5.27,1.15c-0.12,0-0.47-0.01-1.05-0.03c-0.59-0.02-0.93-0.03-1.03-0.03
						c-0.35,0-0.66,0-0.93,0.01s-0.67,0.01-1.19,0.02C4.2,41.29,3.7,41.3,3.22,41.32c-0.48,0.01-0.8,0.02-0.98,0.02l-1.05-0.02v0.31
						l1.31,0.03c0.18,0,0.5-0.01,0.98-0.02c0.48-0.01,0.97-0.02,1.49-0.03c0.52-0.01,0.92-0.02,1.19-0.02s0.58-0.01,0.93-0.01
						c0.1,0,0.44,0.01,1.03,0.03c0.59,0.02,0.94,0.03,1.05,0.03c1.97,0,3.73-0.38,5.27-1.15c1.54-0.77,2.73-1.82,3.56-3.15
						c0.83-1.33,1.25-2.81,1.25-4.43c0-1.33-0.27-2.54-0.81-3.61C18.14,28.69,17.78,28.15,17.35,27.65z"/>
					<path class="st30" d="M4.9,38.9c0.01,0.61,0.02,0.96,0.02,1.05c0.09,0.03,0.17,0.05,0.25,0.08c0-0.18-0.01-0.44-0.02-0.81
						c-0.01-0.61-0.03-1.21-0.04-1.81c-0.01-0.6-0.02-0.93-0.02-1c0-1.79,0.02-3.92,0.07-6.39c0.04-2.47,0.11-3.96,0.2-4.45
						c1.03-0.46,2.19-0.69,3.47-0.69c1.31,0,2.58,0.31,3.83,0.93c0.92,0.46,1.72,1.08,2.4,1.87c-0.73-0.93-1.61-1.66-2.65-2.18
						c-1.24-0.62-2.52-0.93-3.83-0.93c-1.28,0-2.44,0.23-3.47,0.69c-0.09,0.5-0.16,1.98-0.2,4.45c-0.04,2.47-0.07,4.6-0.07,6.39
						c0,0.07,0.01,0.4,0.02,1C4.88,37.69,4.89,38.29,4.9,38.9z"/>
					<path class="st30" d="M1.31,24.86l0.02,0.31c0.57-0.02,0.99,0.07,1.26,0.27c-0.02-0.04-0.04-0.09-0.06-0.12
						C2.32,25.02,1.91,24.87,1.31,24.86z"/>
					<path class="st30" d="M26.25,41.2l0.04,0.09l-5.08,0.13l-0.04,0.32l5.37-0.13l-0.16-0.39C26.34,41.2,26.3,41.2,26.25,41.2z"/>
					<path class="st30" d="M21.53,33.07c-0.11-0.01-0.21-0.03-0.29-0.04c-0.05,0.05-0.07,0.11-0.07,0.18c0,0.07,0.2,0.13,0.61,0.17
						c0.26,0.03,0.44,0.06,0.55,0.09c-0.04-0.11-0.08-0.2-0.14-0.27C22.16,33.16,21.94,33.11,21.53,33.07z"/>
					<path class="st30" d="M24.13,34.75c-0.04,0.77-0.06,1.46-0.06,2.05c0,0.44,0.02,1.08,0.05,1.91c0.03,0.83,0.09,1.39,0.17,1.69
						c0.07,0.15,0.15,0.25,0.25,0.3c-0.08-0.3-0.13-0.85-0.16-1.67c-0.03-0.83-0.05-1.47-0.05-1.91c0-0.6,0.02-1.28,0.06-2.05
						c0.04-0.77,0.09-1.51,0.15-2.21c0.06-0.7,0.14-1.24,0.23-1.6c-0.11-0.04-0.19-0.05-0.25-0.05c-0.02,0.02-0.05,0.03-0.07,0.05
						c-0.06,0.34-0.11,0.76-0.16,1.29C24.23,33.24,24.17,33.97,24.13,34.75z"/>
					<path class="st30" d="M24.69,26.2c-0.19,0.2-0.43,0.31-0.73,0.31c-0.25,0-0.47-0.09-0.66-0.25c0.05,0.09,0.11,0.18,0.19,0.26
						c0.2,0.2,0.45,0.31,0.73,0.31c0.29,0,0.54-0.1,0.73-0.31c0.19-0.2,0.29-0.45,0.29-0.73c0-0.28-0.1-0.53-0.29-0.73
						c-0.03-0.03-0.06-0.05-0.09-0.07c0.08,0.15,0.12,0.31,0.12,0.49C24.98,25.75,24.89,26,24.69,26.2z"/>
					<path class="st30" d="M26.88,32.17c-0.09-0.05-0.17-0.09-0.24-0.13v0.18c0.13,0.07,0.3,0.16,0.5,0.26
						c0.15,0.08,0.26,0.15,0.36,0.22c-0.07-0.13-0.12-0.22-0.16-0.25C27.24,32.37,27.08,32.27,26.88,32.17z"/>
					<path class="st30" d="M36.57,31.83c-0.41,0.17-0.76,0.47-1.05,0.91c-0.29,0.44-0.5,0.83-0.62,1.17
						c-0.03,0.04-0.1,0.22-0.23,0.51c-0.12,0.3-0.21,0.49-0.27,0.58l-2.4,5.29l-0.68,1.69H31.1c0.03,0.1,0.06,0.22,0.08,0.32h0.4
						l0.68-1.69l2.4-5.29c0.05-0.09,0.14-0.28,0.27-0.58c0.12-0.3,0.2-0.47,0.23-0.51c0.12-0.35,0.33-0.74,0.62-1.17
						c0.29-0.44,0.64-0.74,1.05-0.91v-0.4c-0.08,0.02-0.17,0.03-0.26,0.04V31.83z"/>
					<path class="st30" d="M29.96,32.17c-0.16,0.07-0.25,0.18-0.25,0.33c0,0.42,0.27,1.43,0.8,3.05c0.54,1.61,0.96,2.77,1.27,3.46
						c0.02-0.04,0.05-0.08,0.07-0.12c-0.29-0.7-0.65-1.71-1.09-3.03c-0.54-1.61-0.8-2.63-0.8-3.05c0-0.15,0.08-0.26,0.25-0.33
						c0.16-0.07,0.56-0.14,1.19-0.21l0.05-0.45c-0.1,0.01-0.2,0.01-0.29,0.01l-0.01,0.12C30.52,32.03,30.13,32.1,29.96,32.17z"/>
					<path class="st30" d="M33.84,32.17c-0.2-0.09-0.45-0.16-0.75-0.19l-0.04,0.29c0.44,0.02,0.78,0.09,1.04,0.21
						c0.02,0.01,0.03,0.03,0.05,0.04C34.08,32.37,33.98,32.24,33.84,32.17z"/>
					<path class="st30" d="M47.04,33.19c0.23,0.31,0.43,0.65,0.6,1.01c0.27,0.62,0.41,1.28,0.41,1.99c0,0.92-0.22,1.79-0.66,2.6
						c-0.44,0.81-1.06,1.46-1.87,1.95c-0.8,0.49-1.73,0.74-2.78,0.74c-0.79,0-1.61-0.17-2.45-0.52c-0.74-0.31-1.37-0.79-1.91-1.42
						c0.02,0.02,0.03,0.04,0.04,0.07c0.57,0.77,1.28,1.33,2.12,1.67c0.84,0.35,1.66,0.52,2.45,0.52c1.05,0,1.98-0.25,2.78-0.74
						c0.8-0.49,1.43-1.14,1.87-1.95c0.44-0.81,0.66-1.68,0.66-2.6c0-0.71-0.14-1.38-0.41-1.99C47.67,34.03,47.38,33.58,47.04,33.19z
						"/>
					<path class="st30" d="M40.56,39.74c-0.3-0.39-0.55-0.83-0.76-1.33c-0.33-0.82-0.49-1.64-0.49-2.47c0-0.72,0.14-1.37,0.41-1.96
						c0.27-0.59,0.65-1.04,1.13-1.37c0.48-0.33,1.02-0.49,1.63-0.49c0.75,0,1.43,0.24,2.05,0.73c0.24,0.18,0.45,0.4,0.64,0.62
						c-0.26-0.35-0.56-0.67-0.9-0.94c-0.62-0.48-1.3-0.73-2.05-0.73c-0.6,0-1.15,0.16-1.63,0.49c-0.48,0.33-0.86,0.79-1.13,1.37
						c-0.27,0.59-0.41,1.24-0.41,1.96c0,0.83,0.16,1.65,0.49,2.47C39.8,38.73,40.14,39.28,40.56,39.74z"/>
					<path class="st30" d="M50.89,39.06c0.04,0.05,0.08,0.09,0.13,0.13c-0.13-0.18-0.25-0.38-0.34-0.61
						c-0.12-0.3-0.29-0.78-0.5-1.45c-0.03,0-0.08,0.01-0.14,0.03c0.16,0.49,0.29,0.86,0.39,1.1C50.54,38.57,50.69,38.84,50.89,39.06
						z"/>
					<path class="st30" d="M58.33,35.04c-0.36-0.28-0.78-0.54-1.25-0.76c-0.48-0.22-1.09-0.48-1.85-0.76
						c-1.05-0.38-1.91-0.77-2.59-1.17c-0.48-0.28-0.89-0.62-1.23-1c0.39,0.51,0.88,0.95,1.49,1.31c0.68,0.4,1.54,0.79,2.59,1.17
						c0.76,0.28,1.37,0.54,1.85,0.76c0.48,0.22,0.89,0.48,1.25,0.76c0.11,0.09,0.21,0.19,0.31,0.29
						C58.73,35.42,58.54,35.21,58.33,35.04z"/>
					<path class="st30" d="M60.8,34.82c-0.08-0.1-0.16-0.19-0.24-0.28c0.5,0.68,0.75,1.51,0.75,2.5c0,0.85-0.22,1.62-0.67,2.31
						c-0.44,0.69-1.11,1.23-2,1.63c-0.89,0.4-1.98,0.6-3.27,0.6c-1.25,0-2.56-0.18-3.91-0.55c-0.24-0.05-0.39-0.08-0.44-0.08
						c-0.23,0-0.32,0.16-0.27,0.47l-0.3-0.01c0,0.1,0.01,0.21,0.01,0.3l0.55,0.03c-0.05-0.31,0.04-0.47,0.27-0.47
						c0.05,0,0.2,0.03,0.44,0.08c1.35,0.36,2.65,0.55,3.91,0.55c1.29,0,2.38-0.2,3.27-0.6c0.89-0.4,1.56-0.94,2-1.63
						c0.44-0.69,0.67-1.45,0.67-2.31C61.58,36.35,61.32,35.5,60.8,34.82z"/>
					<path class="st30" d="M60.59,25.43c-0.02,0.24-0.04,0.43-0.05,0.56c-0.01,0.13-0.02,0.22-0.03,0.27
						c0.12,1.08,0.17,1.66,0.16,1.76l-0.19,0.01c0.02,0.11,0.04,0.21,0.05,0.33l0.4-0.03c0.01-0.1-0.04-0.68-0.16-1.76
						c0.01-0.04,0.02-0.13,0.03-0.27c0.01-0.13,0.02-0.32,0.05-0.56c0.02-0.24,0.04-0.46,0.07-0.66c0.02-0.2,0.05-0.4,0.07-0.61
						c-0.11-0.04-0.2-0.05-0.27-0.05l-0.02,0.01c-0.01,0.11-0.03,0.22-0.04,0.33C60.64,24.97,60.62,25.19,60.59,25.43z"/>
					<path class="st30" d="M57.61,24.84c-0.66-0.19-1.29-0.28-1.89-0.28c-1.48,0-2.45,0.38-2.93,1.15c-0.48,0.77-0.71,1.5-0.71,2.18
						c0,0.72,0.18,1.32,0.53,1.79c0.07,0.1,0.15,0.19,0.23,0.28c-0.34-0.47-0.51-1.05-0.51-1.76c0-0.68,0.24-1.41,0.71-2.18
						c0.48-0.77,1.45-1.15,2.93-1.15c0.6,0,1.24,0.09,1.89,0.28c0.66,0.19,1.25,0.54,1.77,1.06c0.04,0.04,0.07,0.08,0.1,0.12
						c-0.1-0.16-0.22-0.31-0.36-0.44C58.86,25.38,58.27,25.03,57.61,24.84z"/>
					<path class="st30" d="M54.2,31.12c0.53,0.27,1.27,0.59,2.23,0.96c1.08,0.43,1.96,0.82,2.61,1.18c0.56,0.31,1.07,0.74,1.52,1.28
						c-0.01-0.01-0.01-0.02-0.02-0.03c-0.52-0.68-1.1-1.2-1.76-1.56c-0.66-0.36-1.53-0.75-2.61-1.18c-0.96-0.37-1.7-0.69-2.23-0.96
						c-0.42-0.21-0.78-0.5-1.09-0.84c0.01,0.01,0.01,0.03,0.02,0.04C53.22,30.48,53.67,30.85,54.2,31.12z"/>
				</g>
				<g class="st3">
					<path class="st20" d="M16.93,32.9c0,1.34-0.26,2.63-0.79,3.87c-0.52,1.24-1.38,2.25-2.55,3.05c-1.18,0.8-2.69,1.19-4.53,1.19
						c-0.73,0-1.33-0.06-1.81-0.17c-0.43-0.1-1.04-0.27-1.81-0.52c0,0.12,0,0.2,0,0.24c0.9,0.28,1.59,0.48,2.07,0.59
						s1.08,0.17,1.81,0.17c1.84,0,3.35-0.4,4.53-1.19c1.18-0.8,2.03-1.81,2.55-3.05c0.52-1.24,0.79-2.52,0.79-3.87
						c0-1.69-0.4-3.14-1.2-4.35c-0.21-0.32-0.43-0.61-0.67-0.88c0.14,0.18,0.28,0.37,0.41,0.57C16.53,29.76,16.93,31.21,16.93,32.9z
						"/>
					<path class="st20" d="M7.57,24.67c0.6-0.08,1.23-0.12,1.88-0.12c1.32,0,2.59,0.2,3.8,0.59c1.21,0.4,2.28,0.97,3.23,1.71
						c0.42,0.33,0.79,0.7,1.13,1.1c-0.4-0.52-0.86-0.99-1.38-1.41c-0.94-0.75-2.02-1.32-3.23-1.71c-1.21-0.4-2.48-0.59-3.8-0.59
						c-0.65,0-1.28,0.04-1.88,0.12c-1.63,0.2-3.63,0.29-6.01,0.29l0.03,0.51c0.09,0,0.16,0,0.24,0.01l-0.01-0.2
						C3.94,24.96,5.94,24.86,7.57,24.67z"/>
					<path class="st20" d="M3.17,40.79c0.22-0.49,0.33-2.7,0.33-6.63c0-2.61-0.03-4.56-0.09-5.84c-0.06-1.28-0.19-2.08-0.37-2.39
						c-0.05-0.08-0.12-0.14-0.2-0.2c0.15,0.37,0.26,1.13,0.32,2.27c0.06,1.28,0.09,3.23,0.09,5.84c0,3.93-0.11,6.14-0.33,6.63
						c-0.2,0.42-0.77,0.63-1.72,0.63v0.51l0.26,0.01v-0.2C2.4,41.42,2.97,41.21,3.17,40.79z"/>
					<path class="st20" d="M24.71,31.55c0.02-0.12,0.04-0.22,0.07-0.31c-0.11-0.04-0.19-0.05-0.25-0.05
						c-1.01,0.84-2.05,1.42-3.11,1.75c-0.16,0.04-0.24,0.12-0.24,0.27c0,0.05,0.11,0.1,0.33,0.13c0.04-0.04,0.09-0.07,0.17-0.09
						C22.7,32.92,23.71,32.35,24.71,31.55z"/>
					<path class="st20" d="M23.56,26.56c-0.08-0.14-0.12-0.3-0.12-0.48c0-0.3,0.1-0.55,0.31-0.75c0.2-0.2,0.45-0.29,0.73-0.29
						c0.25,0,0.46,0.08,0.63,0.23c-0.05-0.08-0.1-0.17-0.17-0.24c-0.2-0.2-0.44-0.31-0.72-0.31c-0.28,0-0.53,0.1-0.73,0.29
						c-0.2,0.2-0.31,0.44-0.31,0.75c0,0.28,0.1,0.53,0.31,0.73C23.51,26.52,23.54,26.54,23.56,26.56z"/>
					<path class="st20" d="M22.76,41.22c0.04-0.08,0.08-0.4,0.12-0.95c0.04-0.56,0.06-1.22,0.09-1.99c0.02-0.77,0.03-1.2,0.03-1.3
						c0-1.26-0.02-2.07-0.06-2.43c-0.04-0.36-0.12-0.6-0.23-0.73c-0.01-0.02-0.06-0.03-0.12-0.05c0.04,0.13,0.07,0.28,0.09,0.47
						c0.04,0.36,0.06,1.16,0.06,2.43c0,0.1-0.01,0.53-0.03,1.3c-0.02,0.77-0.05,1.43-0.09,1.99c-0.04,0.56-0.08,0.87-0.12,0.95
						c-0.1,0.2-0.52,0.33-1.28,0.4l-0.05,0.41l0.3-0.01l0.01-0.09C22.23,41.55,22.66,41.41,22.76,41.22z"/>
					<path class="st20" d="M25.07,41.33c0.11,0.04,0.32,0.08,0.64,0.11c0.27,0.01,0.53,0.03,0.8,0.07l-0.12-0.3
						c-0.31-0.04-0.62-0.07-0.93-0.08c-0.32-0.03-0.53-0.06-0.64-0.11c-0.01,0-0.01-0.01-0.01-0.01c0,0.01,0,0.01,0,0.02
						C24.87,41.18,24.96,41.28,25.07,41.33z"/>
					<path class="st20" d="M28.79,35.04c-0.52-1.22-0.83-1.88-0.94-1.97c-0.03-0.02-0.07-0.05-0.1-0.07
						c0.16,0.3,0.42,0.87,0.78,1.72c0.52,1.22,1.03,2.54,1.53,3.94c0.5,1.4,0.88,2.61,1.12,3.63h0.17
						c-0.24-0.95-0.58-2.05-1.04-3.31C29.82,37.57,29.31,36.26,28.79,35.04z"/>
					<path class="st20" d="M28.31,32.23c0.9,0,1.95-0.03,3.12-0.09l0.04-0.33c-1.3,0.07-2.44,0.11-3.41,0.11
						c-0.65,0-1.12-0.01-1.41-0.03v0.32c0.07,0.04,0.16,0.09,0.26,0.13V32.2C27.19,32.22,27.66,32.23,28.31,32.23z"/>
					<path class="st20" d="M34.29,32.12c0.48,0.05,0.9,0.08,1.25,0.08c0.46,0,0.88-0.05,1.28-0.12v-0.36
						c-0.46,0.11-0.97,0.16-1.53,0.16c-0.36,0-0.77-0.03-1.25-0.08l-0.93,0.03l-0.05,0.43c0.1,0,0.2,0.01,0.29,0.02l0.02-0.13
						L34.29,32.12z"/>
					<path class="st20" d="M33.96,36.29c0.51-1.28,0.77-2.18,0.77-2.7c0-0.38-0.11-0.63-0.33-0.76c0.05,0.12,0.08,0.27,0.08,0.45
						c0,0.52-0.26,1.42-0.77,2.7c-0.49,1.22-1.02,2.3-1.59,3.22c0.07,0.16,0.13,0.31,0.19,0.44C32.89,38.68,33.45,37.57,33.96,36.29
						z"/>
					<path class="st20" d="M46.49,37.08c0,0.8-0.15,1.52-0.45,2.15c-0.3,0.63-0.71,1.12-1.21,1.46c-0.51,0.34-1.07,0.51-1.69,0.51
						c-0.71,0-1.36-0.26-1.95-0.79c-0.13-0.12-0.25-0.24-0.37-0.37c0.19,0.25,0.39,0.48,0.62,0.69c0.59,0.52,1.24,0.79,1.95,0.79
						c0.62,0,1.19-0.17,1.69-0.51c0.51-0.34,0.91-0.83,1.21-1.46c0.3-0.63,0.45-1.35,0.45-2.15c0-0.81-0.18-1.6-0.53-2.37
						c-0.22-0.48-0.49-0.89-0.81-1.26c0.21,0.29,0.4,0.6,0.56,0.94C46.32,35.48,46.49,36.27,46.49,37.08z"/>
					<path class="st20" d="M38.25,34.85c0.29-0.64,0.69-1.18,1.19-1.65c0.51-0.46,1.1-0.82,1.77-1.07c0.68-0.25,1.4-0.37,2.17-0.37
						c0.7,0,1.37,0.13,1.99,0.39c0.63,0.26,1.18,0.61,1.65,1.07c0.09,0.09,0.18,0.18,0.26,0.28c-0.16-0.21-0.33-0.41-0.52-0.59
						c-0.47-0.45-1.02-0.81-1.65-1.07c-0.63-0.26-1.29-0.39-1.99-0.39c-0.77,0-1.5,0.12-2.17,0.37c-0.68,0.25-1.27,0.6-1.77,1.07
						c-0.51,0.46-0.9,1.01-1.19,1.65c-0.29,0.64-0.43,1.34-0.43,2.13c0,1.19,0.29,2.17,0.86,2.94c0.07,0.09,0.14,0.17,0.21,0.25
						c-0.54-0.76-0.82-1.72-0.82-2.87C37.82,36.2,37.96,35.49,38.25,34.85z"/>
					<path class="st20" d="M60.54,28.34l0.21-0.01c-0.1-0.69-0.35-1.25-0.74-1.69C60.3,27.1,60.48,27.67,60.54,28.34z"/>
					<path class="st20" d="M50.92,29.34c0-1.34,0.49-2.46,1.48-3.35c0.99-0.89,2.4-1.34,4.23-1.34c0.93,0,1.85,0.1,2.76,0.29
						c0.36,0.07,0.59,0.11,0.68,0.11c0.27,0,0.53-0.09,0.8-0.27l0.08-0.04c0.01-0.09,0.02-0.18,0.03-0.27
						c-0.11-0.04-0.2-0.05-0.27-0.05l-0.11,0.05c-0.27,0.18-0.53,0.27-0.8,0.27c-0.09,0-0.32-0.04-0.68-0.11
						c-0.91-0.2-1.83-0.29-2.76-0.29c-1.83,0-3.24,0.45-4.23,1.34c-0.99,0.89-1.48,2.01-1.48,3.35c0,0.84,0.2,1.56,0.6,2.15
						c0.12,0.17,0.25,0.33,0.39,0.48c-0.04-0.06-0.09-0.11-0.13-0.17C51.12,30.9,50.92,30.18,50.92,29.34z"/>
					<path class="st20" d="M52.19,40.28c0.58,0.3,1.24,0.57,2,0.81c0.76,0.24,1.57,0.36,2.44,0.36c0.76,0,1.51-0.19,2.27-0.56
						c0.76-0.37,1.14-1.2,1.14-2.47c0-0.64-0.11-1.19-0.33-1.65c-0.15-0.32-0.34-0.59-0.56-0.83c0.11,0.16,0.22,0.33,0.31,0.51
						c0.22,0.46,0.33,1.01,0.33,1.65c0,1.27-0.38,2.09-1.14,2.47c-0.76,0.37-1.52,0.56-2.27,0.56c-0.87,0-1.68-0.12-2.44-0.36
						c-0.76-0.24-1.42-0.51-2-0.81c-0.27-0.14-0.49-0.3-0.67-0.47c0.04,0.06,0.08,0.13,0.13,0.18
						C51.59,39.9,51.85,40.11,52.19,40.28z"/>
					<path class="st20" d="M50.29,37.47c-0.04-0.11-0.07-0.22-0.11-0.34c-0.07,0.01-0.21,0.04-0.43,0.11
						c0.51,1.73,0.75,3.22,0.73,4.45l0.24,0.01c-0.02-1.18-0.25-2.55-0.72-4.15C50.12,37.52,50.21,37.49,50.29,37.47z"/>
				</g>
			</g>
		</g>
	</g>
</g>
<g id="Слой_15">
</g>
<g id="Слой_16">
</g>
<g id="Search">
</g>
</svg>
