<svg width="35" height="32" viewBox="0 0 35 32" fill="none" xmlns="http://www.w3.org/2000/svg">
<path d="M25.7796 0.00141882L23.8 2.00541L29.6352 7.88973H16.1C14.0585 7.89198 12.1013 8.71453 10.6577 10.1769C9.21419 11.6393 8.40222 13.622 8.4 15.6901C8.4 19.9917 11.8552 23.4905 16.1 23.4905H16.8V20.654H16.1C13.398 20.654 11.2 18.4273 11.2 15.6901C11.2 12.9529 13.398 10.7262 16.1 10.7262H29.6408L23.8112 16.6318L25.7908 18.6372L35 9.30798L25.7796 0V0.00141882ZM0 0.798476V32H30.8V17.8175L28 20.654V29.1635H2.8V3.63498H17.9956L20.7956 0.798476H0Z" fill="#9F9F9F"/>
</svg>
