<svg width="27" height="14" viewBox="0 0 27 14" fill="none" xmlns="http://www.w3.org/2000/svg">
<path d="M13.5 0C6.1658 0 0.522615 6.426 0.522615 6.426L0 7L0.522615 7.574C0.522615 7.574 5.66782 13.4085 12.5102 13.9457C12.8366 13.986 13.163 14 13.5 14C13.837 14 14.1634 13.986 14.4898 13.9449C21.3322 13.4085 26.4774 7.57487 26.4774 7.57487L27 7L26.4774 6.426C26.4774 6.426 20.8342 0 13.5 0ZM13.5 1.75C15.4382 1.75 17.2252 2.27675 18.7789 2.98025C19.3394 3.90338 19.6588 4.9665 19.6588 6.125C19.6625 7.63331 19.1061 9.08987 18.0963 10.2152C17.0865 11.3406 15.6944 12.0556 14.1871 12.2229C14.1695 12.2264 14.1493 12.2194 14.1326 12.2229C13.9223 12.2325 13.7129 12.25 13.5 12.25C13.266 12.25 13.0399 12.236 12.8129 12.2229C11.3056 12.0556 9.91352 11.3406 8.90373 10.2152C7.89393 9.08987 7.33752 7.63331 7.34124 6.125C7.34124 4.98313 7.65094 3.92 8.19379 3.00738H8.16651C9.73172 2.28988 11.5406 1.75 13.5 1.75ZM13.5 3.5C12.7997 3.50023 12.1282 3.77711 11.6332 4.26972C11.1383 4.76233 10.8603 5.43032 10.8605 6.12675C10.8608 6.82318 11.1392 7.49099 11.6345 7.98327C12.1298 8.47555 12.8015 8.75198 13.5018 8.75175C13.8485 8.75164 14.1918 8.6836 14.5121 8.55153C14.8324 8.41946 15.1234 8.22595 15.3685 7.98203C15.6136 7.73811 15.808 7.44858 15.9406 7.12995C16.0732 6.81132 16.1413 6.46983 16.1412 6.125C16.1411 5.78017 16.0727 5.43873 15.9399 5.12019C15.8071 4.80165 15.6125 4.51224 15.3673 4.26848C15.122 4.02473 14.8309 3.8314 14.5105 3.69955C14.1901 3.56769 13.8467 3.49989 13.5 3.5ZM5.80155 4.32075C5.65851 4.91172 5.5847 5.51716 5.5816 6.125C5.5816 7.65975 6.02151 9.09562 6.79135 10.3084C5.22949 9.39843 3.7963 8.28588 2.52949 7C3.52674 5.99943 4.62298 5.1015 5.80155 4.31988V4.32075ZM21.1984 4.32075C22.377 5.1021 23.4732 5.99973 24.4705 7C23.2037 8.28588 21.7705 9.39843 20.2086 10.3084C21.0022 9.05605 21.4218 7.60528 21.4184 6.125C21.4184 5.49937 21.3357 4.90175 21.1984 4.31988V4.32075Z" fill="#9F9F9F"/>
</svg>
