<svg width="19" height="10" viewBox="0 0 19 10" fill="none" xmlns="http://www.w3.org/2000/svg">
<path d="M5.34378 0.000555515C4.97506 0.000555515 4.61525 0.0372223 4.26731 0.105C4.09213 0.137433 3.91875 0.177852 3.74778 0.226111C3.00934 0.446556 2.33044 0.813507 1.75743 1.30191C1.18442 1.79031 0.730795 2.38867 0.427538 3.05611C0.359851 3.20611 0.292757 3.35111 0.241695 3.50778C0.0794653 3.99076 -0.00204788 4.49429 3.90791e-05 5.00056C3.90791e-05 5.51722 0.0861326 6.00778 0.241101 6.47611C0.243476 6.48056 0.238726 6.48944 0.241101 6.49389C0.476701 7.18483 0.86888 7.82006 1.39086 8.35621C1.91284 8.89237 2.55233 9.31681 3.26566 9.60056C3.42597 9.66389 3.58094 9.72667 3.74838 9.77444C4.25366 9.92444 4.78506 10 5.34378 10H13.6563C16.5995 10 19 7.75389 19 5C19 2.24611 16.5995 0 13.6563 0L5.34378 0.000555515ZM5.34378 1.11167C7.64693 1.11167 9.50002 2.84556 9.50002 5.00056C9.50002 7.15556 7.64693 8.88944 5.34378 8.88944C3.04063 8.88944 1.18754 7.15556 1.18754 5.00056C1.18754 4.86611 1.19229 4.73167 1.20594 4.60111C1.30971 3.64266 1.79077 2.7546 2.55557 2.10964C3.32036 1.46469 4.3142 1.10897 5.34378 1.11167ZM8.68362 1.11167H13.6563C15.9594 1.11167 17.8125 2.84556 17.8125 5.00056C17.8125 7.15556 15.9594 8.88944 13.6563 8.88944H8.68362C9.9008 7.97167 10.6875 6.57167 10.6875 5.00056C10.6875 3.42944 9.90139 2.02944 8.68362 1.11167Z" fill="black"/>
</svg>
