<svg width="19" height="10" viewBox="0 0 19 10" fill="none" xmlns="http://www.w3.org/2000/svg">
<path d="M13.6562 9.99944C14.0249 9.99944 14.3848 9.96278 14.7327 9.895C14.9079 9.86257 15.0813 9.82215 15.2522 9.77389C15.9907 9.55344 16.6696 9.18649 17.2426 8.69809C17.8156 8.20969 18.2692 7.61133 18.5725 6.94389C18.6401 6.79389 18.7072 6.64889 18.7583 6.49222C18.9205 6.00924 19.002 5.50571 19 4.99944C19 4.48278 18.9139 3.99222 18.7589 3.52389C18.7565 3.51944 18.7613 3.51056 18.7589 3.50611C18.5233 2.81517 18.1311 2.17994 17.6091 1.64379C17.0872 1.10763 16.4477 0.683193 15.7343 0.399443C15.574 0.33611 15.4191 0.273333 15.2516 0.225555C14.7463 0.0755554 14.2149 -4.18323e-07 13.6562 -4.67168e-07L5.34374 -1.19387e-06C2.40053 -1.45117e-06 6.77867e-07 2.24611 4.37114e-07 5C1.96361e-07 7.75389 2.40052 10 5.34374 10L13.6562 9.99944ZM13.6562 8.88833C11.3531 8.88833 9.49998 7.15444 9.49998 4.99944C9.49998 2.84444 11.3531 1.11055 13.6562 1.11056C15.9594 1.11056 17.8125 2.84444 17.8125 4.99944C17.8125 5.13389 17.8077 5.26833 17.7941 5.39889C17.6903 6.35733 17.2092 7.2454 16.4444 7.89036C15.6796 8.53531 14.6858 8.89103 13.6562 8.88833ZM10.3164 8.88833L5.34374 8.88833C3.04059 8.88833 1.1875 7.15444 1.1875 4.99944C1.1875 2.84444 3.04059 1.11055 5.34374 1.11055L10.3164 1.11055C9.0992 2.02833 8.31248 3.42833 8.31248 4.99944C8.31248 6.57055 9.09861 7.97055 10.3164 8.88833Z" fill="white"/>
<path d="M13.6562 8.88833C11.3531 8.88833 9.49998 7.15444 9.49998 4.99944C9.49998 2.84444 11.3531 1.11055 13.6562 1.11056C15.9594 1.11056 17.8125 2.84444 17.8125 4.99944C17.8125 5.13389 17.8077 5.26833 17.7941 5.39889C17.6903 6.35733 17.2092 7.2454 16.4444 7.89036C15.6796 8.53531 14.6858 8.89103 13.6562 8.88833Z" fill="white"/>
</svg>
