<svg width="35" height="34" viewBox="0 0 35 34" fill="none" xmlns="http://www.w3.org/2000/svg">
<path d="M6.35291 0C4.67004 0.00651201 3.05796 0.673252 1.86797 1.85492C0.677987 3.0366 0.00655781 4.63742 0 6.30855V27.6915C0.00655781 29.3626 0.677987 30.9634 1.86797 32.1451C3.05796 33.3267 4.67004 33.9935 6.35291 34H27.8862C29.5691 33.9935 31.1812 33.3267 32.3712 32.1451C33.5611 30.9634 34.2326 29.3626 34.2391 27.6915V6.30855C34.2326 4.63742 33.5611 3.0366 32.3712 1.85492C31.1812 0.673252 29.5691 0.00651201 27.8862 0H6.35291ZM6.35291 3.09091H27.8862C29.6916 3.09091 31.1265 4.51582 31.1265 6.30855V27.6915C31.1265 29.4842 29.6916 30.9091 27.8862 30.9091H6.35291C5.92665 30.9118 5.50409 30.8304 5.10975 30.6696C4.71541 30.5088 4.35713 30.2719 4.05571 29.9726C3.75429 29.6733 3.51571 29.3175 3.35383 28.9259C3.19194 28.5344 3.10996 28.1147 3.11265 27.6915V6.30855C3.11265 4.51582 4.54758 3.09091 6.35291 3.09091ZM16.6822 11.1736C15.5383 11.1628 14.5656 11.1736 14.0194 11.4395C13.6536 11.6156 13.375 12.0128 13.5447 12.0314C13.7579 12.0623 14.2373 12.1643 14.494 12.5089C14.8209 12.9494 14.81 13.9462 14.81 13.9462C14.81 13.9462 14.9921 16.6863 14.3649 17.0309C13.9338 17.2658 13.3439 16.7883 12.0677 14.6092C11.4172 13.4872 10.9254 12.2493 10.9254 12.2493C10.9254 12.2493 10.832 12.019 10.6639 11.8985C10.4569 11.7485 10.1706 11.6991 10.1706 11.6991L7.12485 11.7176C7.12485 11.7176 6.66885 11.7362 6.50544 11.9294C6.35292 12.1102 6.49298 12.4656 6.49298 12.4656C6.49298 12.4656 8.87572 18.0015 11.5744 20.791C14.0489 23.3518 16.8581 23.1818 16.8581 23.1818H18.1343C18.1343 23.1818 18.5171 23.1401 18.7117 22.9345C18.8953 22.7414 18.8891 22.3782 18.8891 22.3782C18.8891 22.3782 18.8642 20.6828 19.6548 20.4294C20.4392 20.1867 21.4353 22.0706 22.4998 22.7955C23.3091 23.3441 23.9223 23.2235 23.9223 23.2235L26.7688 23.1818C26.7688 23.1818 28.252 23.0906 27.5469 21.9254C27.4925 21.8357 27.1392 21.0692 25.4381 19.499C23.6499 17.8577 23.888 18.1235 26.0389 15.2799C27.3462 13.5475 27.8691 12.4904 27.7041 12.0314C27.5485 11.6033 26.5867 11.7176 26.5867 11.7176L23.3822 11.7362C23.3822 11.7362 23.1457 11.7053 22.9698 11.8088C22.8489 11.898 22.7525 12.016 22.6896 12.1519C22.6896 12.1519 22.1792 13.4918 21.5037 14.6339C20.0812 17.0355 19.5039 17.1685 19.2735 17.0185C18.7319 16.6677 18.8658 15.6168 18.8658 14.875C18.8658 12.5383 19.2237 11.5724 18.1732 11.3205C17.8261 11.2355 17.5709 11.1814 16.6838 11.1736H16.6822Z" fill="white"/>
</svg>
