<svg width="35" height="34" viewBox="0 0 35 34" fill="none" xmlns="http://www.w3.org/2000/svg">
<path d="M7.06776 0C5.38488 0.00651201 3.7728 0.673252 2.58281 1.85492C1.39283 3.0366 0.721402 4.63742 0.714844 6.30855V27.6915C0.721402 29.3626 1.39283 30.9634 2.58281 32.1451C3.7728 33.3267 5.38488 33.9935 7.06776 34H28.6011C30.2839 33.9935 31.896 33.3267 33.086 32.1451C34.276 30.9634 34.9474 29.3626 34.954 27.6915V6.30855C34.9474 4.63742 34.276 3.0366 33.086 1.85492C31.896 0.673252 30.2839 0.00651201 28.6011 0H7.06776ZM7.06776 3.09091H28.6011C30.4064 3.09091 31.8413 4.51582 31.8413 6.30855V27.6915C31.8413 29.4842 30.4064 30.9091 28.6011 30.9091H7.06776C6.64149 30.9118 6.21893 30.8304 5.82459 30.6696C5.43025 30.5088 5.07198 30.2719 4.77056 29.9726C4.46913 29.6733 4.23056 29.3175 4.06867 28.9259C3.90678 28.5344 3.82481 28.1147 3.82749 27.6915V6.30855C3.82749 4.51582 5.26242 3.09091 7.06776 3.09091Z" fill="#9F9F9F"/>
<path d="M17.8347 11.6572C17.8347 11.6572 12.6199 11.6572 11.337 11.9722C10.6243 12.1568 10.0541 12.6672 9.86402 13.3296C9.51953 14.5133 9.51953 17.0109 9.51953 17.0109C9.51953 17.0109 9.51953 19.5086 9.86402 20.7032C10.0541 21.3547 10.6243 21.8543 11.337 22.028C12.6199 22.3429 17.8347 22.3429 17.8347 22.3429C17.8347 22.3429 23.0496 22.3429 24.3325 22.028C25.0452 21.8434 25.6154 21.3547 25.8055 20.6923C26.15 19.5086 26.15 17.0109 26.15 17.0109C26.15 17.0109 26.15 14.5241 25.8055 13.3296C25.6154 12.6672 25.0452 12.1568 24.3325 11.9722C23.0496 11.6572 17.8347 11.6572 17.8347 11.6572ZM15.459 13.9117L21.3984 17.0131L15.459 20.0994V13.9117Z" fill="#9F9F9F"/>
</svg>
